{"title":"MyFirstSexTeacher.Ava.Addams.Alura.Jenson.01.08.2014-BASTARD","uid":10674426,"size":278385181,"categoryP":"porn","categoryS":"movie_clips","magnet":"?xt=urn:btih:ac3234f621f4717dec5219bf7c9d7efe8530f677&amp;dn=MyFirstSexTeacher.Ava.Addams.Alura.Jenson.01.08.2014-BASTARD&amp;tr=udp%3A%2F%2Ftracker.openbittorrent.com%3A80&amp;tr=udp%3A%2F%2Fopen.demonii.com%3A1337&amp;tr=udp%3A%2F%2Ftracker.coppersurfer.tk%3A6969&amp;tr=udp%3A%2F%2Fexodus.desync.com%3A6969","seeders":1,"leechers":0,"uploader":null,"files":-1,"time":1406921222,"description":"Alura Jenson &amp; Ava Addams have had enough of Johnny's shenanigans, but they made a promise to his parents that they would help Johnny out at school. They have finally had enough and think Johnny should repay them for all they put up with, so they have him repay them with his cock.\n\nGeneral\nMyFirstSexTeacher.Ava.Addams.Alura.Jenson.01.08.2014-BASTARD.mp4\n\nSource   :    &lt;a href=&quot; http://vasileturcu.ro/i/85359.html&quot; rel=&quot;nofollow&quot; target=&quot;_NEW&quot;&gt; http://vasileturcu.ro/i/85359.html&lt;/a&gt;     \nFormat                           : MPEG-4\nFormat profile                   : Base Media\nCodec ID                         : isom\nFile size                        : 265 MiB\nDuration                         : 37mn 44s\nOverall bit rate                 : 983 Kbps\n\nVideo\nID                               : 1\nFormat                           : AVC\nFormat/Info                      : Advanced Video Codec\nFormat profile                   : &lt;a class=&quot;__cf_email__&quot; href=&quot;/cdn-cgi/l/email-protection&quot; data-cfemail=&quot;f3be929a9db3bfc0ddc3&quot;&gt;[email&amp;#160;protected]&lt;/a&gt;&lt;script cf-hash='f9e31' type=&quot;text/javascript&quot;&gt;\n/* &lt;![CDATA[ */!function(){try{var t=&quot;currentScript&quot;in document?document.currentScript:function(){for(var t=document.getElementsByTagName(&quot;script&quot;),e=t.length;e--;)if(t[e].getAttribute(&quot;cf-hash&quot;))return t[e]}();if(t&amp;&amp;t.previousSibling){var e,r,n,i,c=t.previousSibling,a=c.getAttribute(&quot;data-cfemail&quot;);if(a){for(e=&quot;&quot;,r=parseInt(a.substr(0,2),16),n=2;a.length-n;n+=2)i=parseInt(a.substr(n,2),16)^r,e+=String.fromCharCode(i);e=document.createTextNode(e),c.parentNode.replaceChild(e,c)}}}catch(u){}}();/* ]]&gt; */&lt;/script&gt;\nFormat settings, CABAC           : Yes\nFormat settings, ReFrames        : 4 frames\nCodec ID                         : avc1\nCodec ID/Info                    : Advanced Video Coding\nDuration                         : 37mn 44s\nDuration_LastFrame               : -22ms\nBit rate mode                    : Variable\nBit rate                         : 900 Kbps\nWidth                            : 640 pixels\nHeight                           : 360 pixels\nDisplay aspect ratio             : 16:9\nFrame rate mode                  : Constant\nFrame rate                       : 24.000 fps\nColor space                      : YUV\nChroma subsampling               : 4:2:0\nBit depth                        : 8 bits\nScan type                        : Progressive\nBits/(Pixel*Frame)               : 0.163\nStream size                      : 243 MiB (92%)\nWriting library                  : x264 core 136\n\nAudio\nID                               : 2\nFormat                           : AAC\nFormat/Info                      : Advanced Audio Codec\nFormat profile                   : LC\nCodec ID                         : 40\nDuration                         : 37mn 44s\nBit rate mode                    : Variable\nBit rate                         : 76.7 Kbps\nMaximum bit rate                 : 96.0 Kbps\nChannel(s)                       : 2 channels\nChannel positions                : Front: L R\nSampling rate                    : 44.1 KHz\nCompression mode                 : Lossy\nStream size                      : 20.7 MiB (8%)\nLanguage                         : English\n","torrent":{"xt":"urn:btih:ac3234f621f4717dec5219bf7c9d7efe8530f677","amp;dn":"MyFirstSexTeacher.Ava.Addams.Alura.Jenson.01.08.2014-BASTARD","amp;tr":["udp%3A%2F%2Ftracker.openbittorrent.com%3A80","udp%3A%2F%2Fopen.demonii.com%3A1337","udp%3A%2F%2Ftracker.coppersurfer.tk%3A6969","udp%3A%2F%2Fexodus.desync.com%3A6969"],"infoHash":"ac3234f621f4717dec5219bf7c9d7efe8530f677","infoHashBuffer":{"type":"Buffer","data":[172,50,52,246,33,244,113,125,236,82,25,191,124,157,126,254,133,48,246,119]},"announce":[],"urlList":[]}}